mtllib sphere.mtl
o Sphere
v 0.000000 1.000000 0.000000
v 0.000000 0.980785 -0.195090
v 0.000000 0.923880 -0.382683
v 0.000000 0.707107 -0.707107
v 0.000000 0.382683 -0.923880
v 0.000000 0.195090 -0.980785
v 0.000000 -0.195090 -0.980785
v 0.000000 -0.555570 -0.831470
v 0.000000 -0.831470 -0.555570
v 0.000000 -0.923880 -0.382683
v 0.000000 -0.980785 -0.195090
v 0.000000 -1.000000 0.000000
v 0.074658 0.980785 -0.180240
v 0.146447 0.923880 -0.353553
v 0.212608 0.831470 -0.513280
v 0.270598 0.707107 -0.653281
v 0.318190 0.555570 -0.768178
v 0.353553 0.382683 -0.853553
v 0.375330 0.195090 -0.906127
v 0.382683 0.000000 -0.923880
v 0.375330 -0.195090 -0.906127
v 0.353553 -0.382683 -0.853553
v 0.318190 -0.555570 -0.768178
v 0.270598 -0.707107 -0.653281
v 0.212608 -0.831470 -0.513280
v 0.146447 -0.923880 -0.353553
v 0.074658 -0.980785 -0.180240
v 0.137950 0.980785 -0.137950
v 0.270598 0.923880 -0.270598
v 0.392848 0.831470 -0.392847
v 0.500000 0.707107 -0.500000
v 0.587938 0.555570 -0.587938
v 0.653282 0.382683 -0.653281
v 0.693520 0.195090 -0.693520
v 0.707107 0.000000 -0.707107
v 0.693520 -0.195090 -0.693520
v 0.653282 -0.382683 -0.653281
v 0.587938 -0.555570 -0.587938
v 0.500000 -0.707107 -0.500000
v 0.392848 -0.831470 -0.392847
v 0.270598 -0.923880 -0.270598
v 0.137950 -0.980785 -0.137950
v 0.180240 0.980785 -0.074658
v 0.353553 0.923880 -0.146447
v 0.513280 0.831470 -0.212608
v 0.653281 0.707107 -0.270598
v 0.768178 0.555570 -0.318190
v 0.853553 0.382683 -0.353553
v 0.906127 0.195090 -0.375330
v 0.923880 0.000000 -0.382683
v 0.906127 -0.195090 -0.375330
v 0.853553 -0.382683 -0.353553
v 0.768178 -0.555570 -0.318190
v 0.653281 -0.707107 -0.270598
v 0.513280 -0.831470 -0.212608
v 0.353553 -0.923880 -0.146447
v 0.180240 -0.980785 -0.074658
v 0.195090 0.980785 0.000000
v 0.382683 0.923880 0.000000
v 0.555570 0.831470 0.000000
v 0.707107 0.707107 0.000000
v 0.831470 0.555570 0.000000
v 0.923880 0.382683 0.000000
v 0.980785 0.195090 0.000000
v 1.000000 0.000000 0.000000
v 0.980785 -0.195090 0.000000
v 0.923880 -0.382683 0.000000
v 0.831470 -0.555570 0.000000
v 0.707107 -0.707107 0.000000
v 0.555570 -0.831470 0.000000
v 0.382683 -0.923880 0.000000
v 0.195090 -0.980785 0.000000
v 0.180240 0.980785 0.074658
v 0.353553 0.923880 0.146447
v 0.513280 0.831470 0.212608
v 0.653281 0.707107 0.270598
v 0.768178 0.555570 0.318190
v 0.853553 0.382683 0.353554
v 0.906127 0.195090 0.375330
v 0.923879 0.000000 0.382684
v 0.906127 -0.195090 0.375330
v 0.853553 -0.382683 0.353554
v 0.768178 -0.555570 0.318190
v 0.653281 -0.707107 0.270598
v 0.513280 -0.831470 0.212608
v 0.353553 -0.923880 0.146447
v 0.180240 -0.980785 0.074658
v 0.137950 0.980785 0.137950
v 0.270598 0.923880 0.270598
v 0.392847 0.831470 0.392848
v 0.500000 0.707107 0.500000
v 0.587938 0.555570 0.587938
v 0.653281 0.382683 0.653282
v 0.693520 0.195090 0.693520
v 0.707107 0.000000 0.707107
v 0.693520 -0.195090 0.693520
v 0.653281 -0.382683 0.653282
v 0.587938 -0.555570 0.587938
v 0.500000 -0.707107 0.500000
v 0.392847 -0.831470 0.392848
v 0.270598 -0.923880 0.270598
v 0.137950 -0.980785 0.137950
v 0.074658 0.980785 0.180240
v 0.146447 0.923880 0.353553
v 0.212607 0.831470 0.513280
v 0.270598 0.707107 0.653281
v 0.318189 0.555570 0.768178
v 0.353553 0.382683 0.853553
v 0.375330 0.195090 0.906127
v 0.382683 0.000000 0.923880
v 0.375330 -0.195090 0.906127
v 0.353553 -0.382683 0.853553
v 0.318189 -0.555570 0.768178
v 0.270598 -0.707107 0.653281
v 0.212607 -0.831470 0.513280
v 0.146447 -0.923880 0.353553
v 0.074658 -0.980785 0.180240
v -0.000000 0.980785 0.195090
v -0.000000 0.923880 0.382683
v -0.000000 0.831470 0.555570
v -0.000000 0.707107 0.707107
v -0.000000 0.555570 0.831469
v -0.000000 0.382683 0.923879
v -0.000000 0.195090 0.980785
v -0.000000 0.000000 1.000000
v -0.000000 -0.195090 0.980785
v -0.000000 -0.382683 0.923879
v -0.000000 -0.555570 0.831469
v -0.000000 -0.707107 0.707107
v -0.000000 -0.831470 0.555570
v -0.000000 -0.923880 0.382683
v -0.000000 -0.980785 0.195090
v -0.074658 0.980785 0.180240
v -0.146447 0.923880 0.353553
v -0.212608 0.831470 0.513280
v -0.270598 0.707107 0.653281
v -0.318190 0.555570 0.768178
v -0.353554 0.382683 0.853553
v -0.375331 0.195090 0.906127
v -0.382684 0.000000 0.923879
v -0.375331 -0.195090 0.906127
v -0.353554 -0.382683 0.853553
v -0.318190 -0.555570 0.768178
v -0.270598 -0.707107 0.653281
v -0.212608 -0.831470 0.513280
v -0.146447 -0.923880 0.353553
v -0.074658 -0.980785 0.180240
v -0.137950 0.980785 0.137950
v -0.270598 0.923880 0.270598
v -0.392848 0.831470 0.392847
v -0.500000 0.707107 0.500000
v -0.587938 0.555570 0.587938
v -0.653282 0.382683 0.653281
v -0.693520 0.195090 0.693520
v -0.707107 0.000000 0.707106
v -0.693520 -0.195090 0.693520
v -0.653282 -0.382683 0.653281
v -0.587938 -0.555570 0.587938
v -0.500000 -0.707107 0.500000
v -0.392848 -0.831470 0.392847
v -0.270598 -0.923880 0.270598
v -0.137950 -0.980785 0.137950
v -0.180240 0.980785 0.074658
v -0.353553 0.923880 0.146446
v -0.513280 0.831470 0.212607
v -0.653281 0.707107 0.270598
v -0.768178 0.555570 0.318189
v -0.853553 0.382683 0.353553
v -0.906127 0.195090 0.375330
v -0.923880 0.000000 0.382683
v -0.906127 -0.195090 0.375330
v -0.853553 -0.382683 0.353553
v -0.768178 -0.555570 0.318189
v -0.653281 -0.707107 0.270598
v -0.513280 -0.831470 0.212607
v -0.353553 -0.923880 0.146446
v -0.180240 -0.980785 0.074658
v -0.195090 0.980785 -0.000000
v -0.382683 0.923880 -0.000000
v -0.555570 0.831470 -0.000000
v -0.707107 0.707107 -0.000000
v -0.831469 0.555570 -0.000000
v -0.923879 0.382683 -0.000000
v -0.980785 0.195090 -0.000000
v -1.000000 0.000000 -0.000001
v -0.980785 -0.195090 -0.000000
v -0.923879 -0.382683 -0.000000
v -0.831469 -0.555570 -0.000000
v -0.707107 -0.707107 -0.000000
v -0.555570 -0.831470 -0.000000
v -0.382683 -0.923880 -0.000000
v -0.195090 -0.980785 -0.000000
v -0.180240 0.980785 -0.074658
v -0.353553 0.923880 -0.146447
v -0.513280 0.831470 -0.212608
v -0.653281 0.707107 -0.270598
v -0.768178 0.555570 -0.318190
v -0.853553 0.382683 -0.353554
v -0.906127 0.195090 -0.375331
v -0.923879 0.000000 -0.382684
v -0.906127 -0.195090 -0.375331
v -0.853553 -0.382683 -0.353554
v -0.768178 -0.555570 -0.318190
v -0.653281 -0.707107 -0.270598
v -0.513280 -0.831470 -0.212608
v -0.353553 -0.923880 -0.146447
v -0.180240 -0.980785 -0.074658
v -0.137950 0.980785 -0.137950
v -0.270598 0.923880 -0.270598
v -0.392847 0.831470 -0.392848
v -0.500000 0.707107 -0.500000
v -0.587937 0.555570 -0.587938
v -0.653281 0.382683 -0.653282
v -0.693519 0.195090 -0.693520
v -0.707106 0.000000 -0.707107
v -0.693519 -0.195090 -0.693520
v -0.653281 -0.382683 -0.653282
v -0.587937 -0.555570 -0.587938
v -0.500000 -0.707107 -0.500000
v -0.392847 -0.831470 -0.392848
v -0.270598 -0.923880 -0.270598
v -0.137950 -0.980785 -0.137950
v -0.074658 0.980785 -0.180240
v -0.146446 0.923880 -0.353554
v -0.212607 0.831470 -0.513280
v -0.270598 0.707107 -0.653281
v -0.318189 0.555570 -0.768178
v -0.353553 0.382683 -0.853553
v -0.375330 0.195090 -0.906127
v -0.382683 0.000000 -0.923880
v -0.375330 -0.195090 -0.906127
v -0.353553 -0.382683 -0.853553
v -0.318189 -0.555570 -0.768178
v -0.270598 -0.707107 -0.653281
v -0.212607 -0.831470 -0.513280
v -0.146446 -0.923880 -0.353554
v -0.074658 -0.980785 -0.180240
v 0.000000 0.831470 -0.555570
v 0.000000 0.555570 -0.831469
v 0.000001 0.000000 -1.000000
v 0.000001 -0.382683 -0.923879
v 0.000000 -0.707107 -0.707107
vn 0.0934 0.8781 -0.4693
vn 0.1728 -0.4643 -0.8687
vn 0.1252 0.7669 -0.6294
vn 0.1520 -0.6270 -0.7640
vn 0.1520 0.6270 -0.7640
vn 0.1252 -0.7669 -0.6294
vn 0.1728 0.4643 -0.8687
vn 0.0934 -0.8781 -0.4693
vn 0.1870 0.2852 -0.9401
vn 0.0576 -0.9553 -0.2898
vn 0.1942 0.0962 -0.9762
vn 0.0195 0.9950 -0.0980
vn 0.0195 -0.9950 -0.0980
vn 0.1942 -0.0962 -0.9762
vn 0.0576 0.9553 -0.2898
vn 0.1870 -0.2852 -0.9401
vn 0.5530 -0.0962 -0.8276
vn 0.1642 0.9553 -0.2457
vn 0.5325 -0.2852 -0.7969
vn 0.2659 0.8781 -0.3979
vn 0.4921 -0.4643 -0.7364
vn 0.3565 0.7669 -0.5336
vn 0.4328 -0.6270 -0.6477
vn 0.4328 0.6270 -0.6477
vn 0.3565 -0.7669 -0.5336
vn 0.4921 0.4643 -0.7364
vn 0.2659 -0.8781 -0.3979
vn 0.5325 0.2852 -0.7969
vn 0.1642 -0.9553 -0.2457
vn 0.5530 0.0962 -0.8276
vn 0.0555 0.9950 -0.0831
vn 0.0555 -0.9950 -0.0831
vn 0.5336 -0.7669 -0.3565
vn 0.7364 0.4643 -0.4921
vn 0.3979 -0.8781 -0.2659
vn 0.7969 0.2852 -0.5325
vn 0.2457 -0.9553 -0.1642
vn 0.8276 0.0962 -0.5530
vn 0.0831 0.9950 -0.0555
vn 0.0831 -0.9950 -0.0555
vn 0.8276 -0.0962 -0.5530
vn 0.2457 0.9553 -0.1642
vn 0.7969 -0.2852 -0.5325
vn 0.3979 0.8781 -0.2659
vn 0.7364 -0.4643 -0.4921
vn 0.5336 0.7669 -0.3565
vn 0.6477 -0.6270 -0.4328
vn 0.6477 0.6270 -0.4328
vn 0.9401 -0.2852 -0.1870
vn 0.4693 0.8781 -0.0934
vn 0.8687 -0.4643 -0.1728
vn 0.6294 0.7669 -0.1252
vn 0.7640 -0.6270 -0.1520
vn 0.7640 0.6270 -0.1520
vn 0.6294 -0.7669 -0.1252
vn 0.8687 0.4643 -0.1728
vn 0.4693 -0.8781 -0.0934
vn 0.9401 0.2852 -0.1870
vn 0.2898 -0.9553 -0.0576
vn 0.9762 0.0962 -0.1942
vn 0.0980 0.9950 -0.0195
vn 0.0980 -0.9950 -0.0195
vn 0.9762 -0.0962 -0.1942
vn 0.2898 0.9553 -0.0576
vn 0.4693 -0.8781 0.0934
vn 0.9401 0.2852 0.1870
vn 0.2898 -0.9553 0.0576
vn 0.9762 0.0962 0.1942
vn 0.0980 0.9950 0.0195
vn 0.0980 -0.9950 0.0195
vn 0.9762 -0.0962 0.1942
vn 0.2898 0.9553 0.0576
vn 0.9401 -0.2852 0.1870
vn 0.4693 0.8781 0.0934
vn 0.8687 -0.4643 0.1728
vn 0.6294 0.7669 0.1252
vn 0.7640 -0.6270 0.1520
vn 0.7640 0.6270 0.1520
vn 0.6294 -0.7669 0.1252
vn 0.8687 0.4643 0.1728
vn 0.3979 0.8781 0.2659
vn 0.7364 -0.4643 0.4921
vn 0.5336 0.7669 0.3565
vn 0.6477 -0.6270 0.4328
vn 0.6477 0.6270 0.4328
vn 0.5336 -0.7669 0.3565
vn 0.7364 0.4643 0.4921
vn 0.3979 -0.8781 0.2659
vn 0.7969 0.2852 0.5325
vn 0.2457 -0.9553 0.1642
vn 0.8276 0.0962 0.5530
vn 0.0831 0.9950 0.0555
vn 0.0831 -0.9950 0.0555
vn 0.8276 -0.0962 0.5530
vn 0.2457 0.9553 0.1642
vn 0.7969 -0.2852 0.5325
vn 0.5325 0.2852 0.7969
vn 0.1642 -0.9553 0.2457
vn 0.5530 0.0962 0.8276
vn 0.0555 0.9950 0.0831
vn 0.0555 -0.9950 0.0831
vn 0.5530 -0.0962 0.8276
vn 0.1642 0.9553 0.2457
vn 0.5325 -0.2852 0.7969
vn 0.2659 0.8781 0.3979
vn 0.4921 -0.4643 0.7364
vn 0.3565 0.7669 0.5336
vn 0.4328 -0.6270 0.6477
vn 0.4328 0.6270 0.6477
vn 0.3565 -0.7669 0.5336
vn 0.4921 0.4643 0.7364
vn 0.2659 -0.8781 0.3979
vn 0.1728 -0.4643 0.8687
vn 0.1252 0.7669 0.6294
vn 0.1520 -0.6270 0.7640
vn 0.1520 0.6270 0.7640
vn 0.1252 -0.7669 0.6294
vn 0.1728 0.4643 0.8687
vn 0.0934 -0.8781 0.4693
vn 0.1870 0.2852 0.9401
vn 0.0576 -0.9553 0.2898
vn 0.1942 0.0962 0.9762
vn 0.0195 0.9950 0.0980
vn 0.0195 -0.9950 0.0980
vn 0.1942 -0.0962 0.9762
vn 0.0576 0.9553 0.2898
vn 0.1870 -0.2852 0.9401
vn 0.0934 0.8781 0.4693
vn -0.0576 -0.9553 0.2898
vn -0.1942 0.0962 0.9762
vn -0.0195 0.9950 0.0980
vn -0.0195 -0.9950 0.0980
vn -0.1942 -0.0962 0.9762
vn -0.0576 0.9553 0.2898
vn -0.1870 -0.2852 0.9401
vn -0.0934 0.8781 0.4693
vn -0.1728 -0.4643 0.8687
vn -0.1252 0.7669 0.6294
vn -0.1520 -0.6270 0.7640
vn -0.1520 0.6270 0.7640
vn -0.1252 -0.7669 0.6294
vn -0.1728 0.4643 0.8687
vn -0.0934 -0.8781 0.4693
vn -0.1870 0.2852 0.9401
vn -0.3565 0.7669 0.5336
vn -0.4328 -0.6270 0.6477
vn -0.4328 0.6270 0.6477
vn -0.3565 -0.7669 0.5336
vn -0.4921 0.4643 0.7364
vn -0.2659 -0.8781 0.3979
vn -0.5325 0.2852 0.7969
vn -0.1642 -0.9553 0.2457
vn -0.5530 0.0962 0.8276
vn -0.0555 0.9950 0.0831
vn -0.0555 -0.9950 0.0831
vn -0.5530 -0.0962 0.8276
vn -0.1642 0.9553 0.2457
vn -0.5325 -0.2852 0.7969
vn -0.2659 0.8781 0.3979
vn -0.4921 -0.4643 0.7364
vn -0.8276 0.0962 0.5530
vn -0.0831 0.9950 0.0555
vn -0.0831 -0.9950 0.0555
vn -0.8276 -0.0962 0.5530
vn -0.2457 0.9553 0.1642
vn -0.7969 -0.2852 0.5325
vn -0.3979 0.8781 0.2659
vn -0.7364 -0.4643 0.4921
vn -0.5336 0.7669 0.3565
vn -0.6477 -0.6270 0.4328
vn -0.6477 0.6270 0.4328
vn -0.5336 -0.7669 0.3565
vn -0.7364 0.4643 0.4921
vn -0.3979 -0.8781 0.2659
vn -0.7969 0.2852 0.5325
vn -0.2457 -0.9553 0.1642
vn -0.7640 -0.6270 0.1520
vn -0.7640 0.6270 0.1520
vn -0.6294 -0.7669 0.1252
vn -0.8687 0.4643 0.1728
vn -0.4693 -0.8781 0.0934
vn -0.9401 0.2852 0.1870
vn -0.2898 -0.9553 0.0576
vn -0.9762 0.0962 0.1942
vn -0.0980 0.9950 0.0195
vn -0.0980 -0.9950 0.0195
vn -0.9762 -0.0962 0.1942
vn -0.2898 0.9553 0.0576
vn -0.9401 -0.2852 0.1870
vn -0.4693 0.8781 0.0934
vn -0.8687 -0.4643 0.1728
vn -0.6294 0.7669 0.1252
vn -0.0980 -0.9950 -0.0195
vn -0.9762 -0.0962 -0.1942
vn -0.2898 0.9553 -0.0576
vn -0.9401 -0.2852 -0.1870
vn -0.4693 0.8781 -0.0934
vn -0.8687 -0.4643 -0.1728
vn -0.6294 0.7669 -0.1252
vn -0.7640 -0.6270 -0.1520
vn -0.7640 0.6270 -0.1520
vn -0.6294 -0.7669 -0.1252
vn -0.8687 0.4643 -0.1728
vn -0.4693 -0.8781 -0.0934
vn -0.9401 0.2852 -0.1870
vn -0.2898 -0.9553 -0.0576
vn -0.9762 0.0962 -0.1942
vn -0.0980 0.9950 -0.0195
vn -0.5336 -0.7669 -0.3565
vn -0.7364 0.4643 -0.4921
vn -0.3979 -0.8781 -0.2659
vn -0.7969 0.2852 -0.5325
vn -0.2457 -0.9553 -0.1642
vn -0.8276 0.0962 -0.5530
vn -0.0831 0.9950 -0.0555
vn -0.0831 -0.9950 -0.0555
vn -0.8276 -0.0962 -0.5530
vn -0.2457 0.9553 -0.1642
vn -0.7969 -0.2852 -0.5325
vn -0.3979 0.8781 -0.2659
vn -0.7364 -0.4643 -0.4921
vn -0.5336 0.7669 -0.3565
vn -0.6477 -0.6270 -0.4328
vn -0.6477 0.6270 -0.4328
vn -0.1642 0.9553 -0.2457
vn -0.5325 -0.2852 -0.7969
vn -0.2659 0.8781 -0.3979
vn -0.4921 -0.4643 -0.7364
vn -0.3565 0.7669 -0.5336
vn -0.4328 -0.6270 -0.6477
vn -0.4328 0.6270 -0.6477
vn -0.3565 -0.7669 -0.5336
vn -0.4921 0.4643 -0.7364
vn -0.2659 -0.8781 -0.3979
vn -0.5325 0.2852 -0.7969
vn -0.1642 -0.9553 -0.2457
vn -0.5530 0.0962 -0.8276
vn -0.0555 0.9950 -0.0831
vn -0.0555 -0.9950 -0.0831
vn -0.5530 -0.0962 -0.8276
vn -0.1728 0.4643 -0.8687
vn -0.0934 -0.8781 -0.4693
vn -0.1870 0.2852 -0.9401
vn -0.0576 -0.9553 -0.2898
vn -0.1942 0.0962 -0.9762
vn -0.0195 0.9950 -0.0980
vn -0.0195 -0.9950 -0.0980
vn -0.1942 -0.0962 -0.9762
vn -0.0576 0.9553 -0.2898
vn -0.1870 -0.2852 -0.9401
vn -0.0934 0.8781 -0.4693
vn -0.1728 -0.4643 -0.8687
vn -0.1252 0.7669 -0.6294
vn -0.1520 -0.6270 -0.7640
vn -0.1520 0.6270 -0.7640
vn -0.1252 -0.7669 -0.6294
vt 0.750000 0.812500
vt 0.750000 0.875000
vt 0.687500 0.875000
vt 0.687500 0.812500
vt 0.750000 0.312500
vt 0.750000 0.375000
vt 0.687500 0.375000
vt 0.687500 0.312500
vt 0.750000 0.750000
vt 0.687500 0.750000
vt 0.750000 0.250000
vt 0.687500 0.250000
vt 0.750000 0.687500
vt 0.687500 0.687500
vt 0.750000 0.187500
vt 0.687500 0.187500
vt 0.750000 0.625000
vt 0.687500 0.625000
vt 0.750000 0.125000
vt 0.687500 0.125000
vt 0.750000 0.562500
vt 0.687500 0.562500
vt 0.750000 0.062500
vt 0.687500 0.062500
vt 0.750000 0.500000
vt 0.687500 0.500000
vt 0.750000 0.937500
vt 0.718750 1.000000
vt 0.687500 0.937500
vt 0.718750 0.000000
vt 0.750000 0.437500
vt 0.687500 0.437500
vt 0.625000 0.500000
vt 0.625000 0.437500
vt 0.625000 0.937500
vt 0.625000 0.875000
vt 0.625000 0.375000
vt 0.625000 0.812500
vt 0.625000 0.312500
vt 0.625000 0.750000
vt 0.625000 0.250000
vt 0.625000 0.687500
vt 0.625000 0.187500
vt 0.625000 0.625000
vt 0.625000 0.125000
vt 0.625000 0.562500
vt 0.625000 0.062500
vt 0.656250 1.000000
vt 0.656250 0.000000
vt 0.562500 0.250000
vt 0.562500 0.187500
vt 0.562500 0.687500
vt 0.562500 0.625000
vt 0.562500 0.125000
vt 0.562500 0.562500
vt 0.562500 0.062500
vt 0.562500 0.500000
vt 0.593750 1.000000
vt 0.562500 0.937500
vt 0.593750 0.000000
vt 0.562500 0.437500
vt 0.562500 0.875000
vt 0.562500 0.375000
vt 0.562500 0.812500
vt 0.562500 0.312500
vt 0.562500 0.750000
vt 0.500000 0.437500
vt 0.500000 0.375000
vt 0.500000 0.875000
vt 0.500000 0.812500
vt 0.500000 0.312500
vt 0.500000 0.750000
vt 0.500000 0.250000
vt 0.500000 0.687500
vt 0.500000 0.187500
vt 0.500000 0.625000
vt 0.500000 0.125000
vt 0.500000 0.562500
vt 0.500000 0.062500
vt 0.500000 0.500000
vt 0.531250 1.000000
vt 0.500000 0.937500
vt 0.531250 0.000000
vt 0.437500 0.187500
vt 0.437500 0.125000
vt 0.437500 0.625000
vt 0.437500 0.562500
vt 0.437500 0.062500
vt 0.437500 0.500000
vt 0.468750 1.000000
vt 0.437500 0.937500
vt 0.468750 0.000000
vt 0.437500 0.437500
vt 0.437500 0.875000
vt 0.437500 0.375000
vt 0.437500 0.812500
vt 0.437500 0.312500
vt 0.437500 0.750000
vt 0.437500 0.250000
vt 0.437500 0.687500
vt 0.375000 0.875000
vt 0.375000 0.812500
vt 0.375000 0.375000
vt 0.375000 0.312500
vt 0.375000 0.750000
vt 0.375000 0.250000
vt 0.375000 0.687500
vt 0.375000 0.187500
vt 0.375000 0.625000
vt 0.375000 0.125000
vt 0.375000 0.562500
vt 0.375000 0.062500
vt 0.375000 0.500000
vt 0.406250 1.000000
vt 0.375000 0.937500
vt 0.406250 0.000000
vt 0.375000 0.437500
vt 0.312500 0.625000
vt 0.312500 0.562500
vt 0.312500 0.125000
vt 0.312500 0.062500
vt 0.312500 0.500000
vt 0.343750 1.000000
vt 0.312500 0.937500
vt 0.343750 0.000000
vt 0.312500 0.437500
vt 0.312500 0.875000
vt 0.312500 0.375000
vt 0.312500 0.812500
vt 0.312500 0.312500
vt 0.312500 0.750000
vt 0.312500 0.250000
vt 0.312500 0.687500
vt 0.312500 0.187500
vt 0.250000 0.375000
vt 0.250000 0.312500
vt 0.250000 0.812500
vt 0.250000 0.750000
vt 0.250000 0.250000
vt 0.250000 0.687500
vt 0.250000 0.187500
vt 0.250000 0.625000
vt 0.250000 0.125000
vt 0.250000 0.562500
vt 0.250000 0.062500
vt 0.250000 0.500000
vt 0.281250 1.000000
vt 0.250000 0.937500
vt 0.281250 0.000000
vt 0.250000 0.437500
vt 0.250000 0.875000
vt 0.187500 0.125000
vt 0.187500 0.062500
vt 0.187500 0.562500
vt 0.187500 0.500000
vt 0.218750 1.000000
vt 0.187500 0.937500
vt 0.218750 0.000000
vt 0.187500 0.437500
vt 0.187500 0.875000
vt 0.187500 0.375000
vt 0.187500 0.812500
vt 0.187500 0.312500
vt 0.187500 0.750000
vt 0.187500 0.250000
vt 0.187500 0.687500
vt 0.187500 0.187500
vt 0.187500 0.625000
vt 0.125000 0.812500
vt 0.125000 0.750000
vt 0.125000 0.312500
vt 0.125000 0.250000
vt 0.125000 0.687500
vt 0.125000 0.187500
vt 0.125000 0.625000
vt 0.125000 0.125000
vt 0.125000 0.562500
vt 0.125000 0.062500
vt 0.125000 0.500000
vt 0.156250 1.000000
vt 0.125000 0.937500
vt 0.156250 0.000000
vt 0.125000 0.437500
vt 0.125000 0.875000
vt 0.125000 0.375000
vt 0.062500 0.562500
vt 0.062500 0.500000
vt 0.093750 1.000000
vt 0.062500 0.937500
vt 0.093750 0.000000
vt 0.062500 0.062500
vt 0.062500 0.437500
vt 0.062500 0.875000
vt 0.062500 0.375000
vt 0.062500 0.812500
vt 0.062500 0.312500
vt 0.062500 0.750000
vt 0.062500 0.250000
vt 0.062500 0.687500
vt 0.062500 0.187500
vt 0.062500 0.625000
vt 0.062500 0.125000
vt 0.000000 0.312500
vt 0.000000 0.250000
vt 0.000000 0.750000
vt 0.000000 0.687500
vt 0.000000 0.187500
vt 0.000000 0.625000
vt 0.000000 0.125000
vt 0.000000 0.562500
vt 0.000000 0.062500
vt 0.000000 0.500000
vt 0.031250 1.000000
vt 0.000000 0.937500
vt 0.031250 0.000000
vt 0.000000 0.437500
vt 0.000000 0.875000
vt 0.000000 0.375000
vt 0.000000 0.812500
vt 0.968750 0.000000
vt 1.000000 0.062500
vt 0.937500 0.062500
vt 1.000000 0.437500
vt 1.000000 0.500000
vt 0.937500 0.500000
vt 0.937500 0.437500
vt 1.000000 0.875000
vt 1.000000 0.937500
vt 0.937500 0.937500
vt 0.937500 0.875000
vt 1.000000 0.375000
vt 0.937500 0.375000
vt 1.000000 0.812500
vt 0.937500 0.812500
vt 1.000000 0.312500
vt 0.937500 0.312500
vt 1.000000 0.750000
vt 0.937500 0.750000
vt 1.000000 0.250000
vt 0.937500 0.250000
vt 1.000000 0.687500
vt 0.937500 0.687500
vt 1.000000 0.187500
vt 0.937500 0.187500
vt 1.000000 0.625000
vt 0.937500 0.625000
vt 1.000000 0.125000
vt 0.937500 0.125000
vt 1.000000 0.562500
vt 0.937500 0.562500
vt 0.968750 1.000000
vt 0.875000 0.250000
vt 0.875000 0.187500
vt 0.875000 0.687500
vt 0.875000 0.625000
vt 0.875000 0.125000
vt 0.875000 0.562500
vt 0.875000 0.062500
vt 0.875000 0.500000
vt 0.906250 1.000000
vt 0.875000 0.937500
vt 0.906250 0.000000
vt 0.875000 0.437500
vt 0.875000 0.875000
vt 0.875000 0.375000
vt 0.875000 0.812500
vt 0.875000 0.312500
vt 0.875000 0.750000
vt 0.812500 0.937500
vt 0.812500 0.875000
vt 0.812500 0.437500
vt 0.812500 0.375000
vt 0.812500 0.812500
vt 0.812500 0.312500
vt 0.812500 0.750000
vt 0.812500 0.250000
vt 0.812500 0.687500
vt 0.812500 0.187500
vt 0.812500 0.625000
vt 0.812500 0.125000
vt 0.812500 0.562500
vt 0.812500 0.062500
vt 0.812500 0.500000
vt 0.843750 1.000000
vt 0.843750 0.000000
vt 0.781250 1.000000
vt 0.781250 0.000000
s 0
f 238/1/1 3/2/1 14/3/1 15/4/1
f 8/5/2 241/6/2 22/7/2 23/8/2
f 4/9/3 238/1/3 15/4/3 16/10/3
f 242/11/4 8/5/4 23/8/4 24/12/4
f 239/13/5 4/9/5 16/10/5 17/14/5
f 9/15/6 242/11/6 24/12/6 25/16/6
f 5/17/7 239/13/7 17/14/7 18/18/7
f 10/19/8 9/15/8 25/16/8 26/20/8
f 6/21/9 5/17/9 18/18/9 19/22/9
f 11/23/10 10/19/10 26/20/10 27/24/10
f 240/25/11 6/21/11 19/22/11 20/26/11
f 2/27/12 1/28/12 13/29/12
f 12/30/13 11/23/13 27/24/13
f 7/31/14 240/25/14 20/26/14 21/32/14
f 3/2/15 2/27/15 13/29/15 14/3/15
f 241/6/16 7/31/16 21/32/16 22/7/16
f 21/32/17 20/26/17 35/33/17 36/34/17
f 14/3/18 13/29/18 28/35/18 29/36/18
f 22/7/19 21/32/19 36/34/19 37/37/19
f 15/4/20 14/3/20 29/36/20 30/38/20
f 23/8/21 22/7/21 37/37/21 38/39/21
f 16/10/22 15/4/22 30/38/22 31/40/22
f 24/12/23 23/8/23 38/39/23 39/41/23
f 17/14/24 16/10/24 31/40/24 32/42/24
f 25/16/25 24/12/25 39/41/25 40/43/25
f 18/18/26 17/14/26 32/42/26 33/44/26
f 26/20/27 25/16/27 40/43/27 41/45/27
f 19/22/28 18/18/28 33/44/28 34/46/28
f 27/24/29 26/20/29 41/45/29 42/47/29
f 20/26/30 19/22/30 34/46/30 35/33/30
f 13/29/31 1/48/31 28/35/31
f 12/49/32 27/24/32 42/47/32
f 40/43/33 39/41/33 54/50/33 55/51/33
f 33/44/34 32/42/34 47/52/34 48/53/34
f 41/45/35 40/43/35 55/51/35 56/54/35
f 34/46/36 33/44/36 48/53/36 49/55/36
f 42/47/37 41/45/37 56/54/37 57/56/37
f 35/33/38 34/46/38 49/55/38 50/57/38
f 28/35/39 1/58/39 43/59/39
f 12/60/40 42/47/40 57/56/40
f 36/34/41 35/33/41 50/57/41 51/61/41
f 29/36/42 28/35/42 43/59/42 44/62/42
f 37/37/43 36/34/43 51/61/43 52/63/43
f 30/38/44 29/36/44 44/62/44 45/64/44
f 38/39/45 37/37/45 52/63/45 53/65/45
f 31/40/46 30/38/46 45/64/46 46/66/46
f 39/41/47 38/39/47 53/65/47 54/50/47
f 32/42/48 31/40/48 46/66/48 47/52/48
f 52/63/49 51/61/49 66/67/49 67/68/49
f 45/64/50 44/62/50 59/69/50 60/70/50
f 53/65/51 52/63/51 67/68/51 68/71/51
f 46/66/52 45/64/52 60/70/52 61/72/52
f 54/50/53 53/65/53 68/71/53 69/73/53
f 47/52/54 46/66/54 61/72/54 62/74/54
f 55/51/55 54/50/55 69/73/55 70/75/55
f 48/53/56 47/52/56 62/74/56 63/76/56
f 56/54/57 55/51/57 70/75/57 71/77/57
f 49/55/58 48/53/58 63/76/58 64/78/58
f 57/56/59 56/54/59 71/77/59 72/79/59
f 50/57/60 49/55/60 64/78/60 65/80/60
f 43/59/61 1/81/61 58/82/61
f 12/83/62 57/56/62 72/79/62
f 51/61/63 50/57/63 65/80/63 66/67/63
f 44/62/64 43/59/64 58/82/64 59/69/64
f 71/77/65 70/75/65 85/84/65 86/85/65
f 64/78/66 63/76/66 78/86/66 79/87/66
f 72/79/67 71/77/67 86/85/67 87/88/67
f 65/80/68 64/78/68 79/87/68 80/89/68
f 58/82/69 1/90/69 73/91/69
f 12/92/70 72/79/70 87/88/70
f 66/67/71 65/80/71 80/89/71 81/93/71
f 59/69/72 58/82/72 73/91/72 74/94/72
f 67/68/73 66/67/73 81/93/73 82/95/73
f 60/70/74 59/69/74 74/94/74 75/96/74
f 68/71/75 67/68/75 82/95/75 83/97/75
f 61/72/76 60/70/76 75/96/76 76/98/76
f 69/73/77 68/71/77 83/97/77 84/99/77
f 62/74/78 61/72/78 76/98/78 77/100/78
f 70/75/79 69/73/79 84/99/79 85/84/79
f 63/76/80 62/74/80 77/100/80 78/86/80
f 75/96/81 74/94/81 89/101/81 90/102/81
f 83/97/82 82/95/82 97/103/82 98/104/82
f 76/98/83 75/96/83 90/102/83 91/105/83
f 84/99/84 83/97/84 98/104/84 99/106/84
f 77/100/85 76/98/85 91/105/85 92/107/85
f 85/84/86 84/99/86 99/106/86 100/108/86
f 78/86/87 77/100/87 92/107/87 93/109/87
f 86/85/88 85/84/88 100/108/88 101/110/88
f 79/87/89 78/86/89 93/109/89 94/111/89
f 87/88/90 86/85/90 101/110/90 102/112/90
f 80/89/91 79/87/91 94/111/91 95/113/91
f 73/91/92 1/114/92 88/115/92
f 12/116/93 87/88/93 102/112/93
f 81/93/94 80/89/94 95/113/94 96/117/94
f 74/94/95 73/91/95 88/115/95 89/101/95
f 82/95/96 81/93/96 96/117/96 97/103/96
f 94/111/97 93/109/97 108/118/97 109/119/97
f 102/112/98 101/110/98 116/120/98 117/121/98
f 95/113/99 94/111/99 109/119/99 110/122/99
f 88/115/100 1/123/100 103/124/100
f 12/125/101 102/112/101 117/121/101
f 96/117/102 95/113/102 110/122/102 111/126/102
f 89/101/103 88/115/103 103/124/103 104/127/103
f 97/103/104 96/117/104 111/126/104 112/128/104
f 90/102/105 89/101/105 104/127/105 105/129/105
f 98/104/106 97/103/106 112/128/106 113/130/106
f 91/105/107 90/102/107 105/129/107 106/131/107
f 99/106/108 98/104/108 113/130/108 114/132/108
f 92/107/109 91/105/109 106/131/109 107/133/109
f 100/108/110 99/106/110 114/132/110 115/134/110
f 93/109/111 92/107/111 107/133/111 108/118/111
f 101/110/112 100/108/112 115/134/112 116/120/112
f 113/130/113 112/128/113 127/135/113 128/136/113
f 106/131/114 105/129/114 120/137/114 121/138/114
f 114/132/115 113/130/115 128/136/115 129/139/115
f 107/133/116 106/131/116 121/138/116 122/140/116
f 115/134/117 114/132/117 129/139/117 130/141/117
f 108/118/118 107/133/118 122/140/118 123/142/118
f 116/120/119 115/134/119 130/141/119 131/143/119
f 109/119/120 108/118/120 123/142/120 124/144/120
f 117/121/121 116/120/121 131/143/121 132/145/121
f 110/122/122 109/119/122 124/144/122 125/146/122
f 103/124/123 1/147/123 118/148/123
f 12/149/124 117/121/124 132/145/124
f 111/126/125 110/122/125 125/146/125 126/150/125
f 104/127/126 103/124/126 118/148/126 119/151/126
f 112/128/127 111/126/127 126/150/127 127/135/127
f 105/129/128 104/127/128 119/151/128 120/137/128
f 132/145/129 131/143/129 146/152/129 147/153/129
f 125/146/130 124/144/130 139/154/130 140/155/130
f 118/148/131 1/156/131 133/157/131
f 12/158/132 132/145/132 147/153/132
f 126/150/133 125/146/133 140/155/133 141/159/133
f 119/151/134 118/148/134 133/157/134 134/160/134
f 127/135/135 126/150/135 141/159/135 142/161/135
f 120/137/136 119/151/136 134/160/136 135/162/136
f 128/136/137 127/135/137 142/161/137 143/163/137
f 121/138/138 120/137/138 135/162/138 136/164/138
f 129/139/139 128/136/139 143/163/139 144/165/139
f 122/140/140 121/138/140 136/164/140 137/166/140
f 130/141/141 129/139/141 144/165/141 145/167/141
f 123/142/142 122/140/142 137/166/142 138/168/142
f 131/143/143 130/141/143 145/167/143 146/152/143
f 124/144/144 123/142/144 138/168/144 139/154/144
f 136/164/145 135/162/145 150/169/145 151/170/145
f 144/165/146 143/163/146 158/171/146 159/172/146
f 137/166/147 136/164/147 151/170/147 152/173/147
f 145/167/148 144/165/148 159/172/148 160/174/148
f 138/168/149 137/166/149 152/173/149 153/175/149
f 146/152/150 145/167/150 160/174/150 161/176/150
f 139/154/151 138/168/151 153/175/151 154/177/151
f 147/153/152 146/152/152 161/176/152 162/178/152
f 140/155/153 139/154/153 154/177/153 155/179/153
f 133/157/154 1/180/154 148/181/154
f 12/182/155 147/153/155 162/178/155
f 141/159/156 140/155/156 155/179/156 156/183/156
f 134/160/157 133/157/157 148/181/157 149/184/157
f 142/161/158 141/159/158 156/183/158 157/185/158
f 135/162/159 134/160/159 149/184/159 150/169/159
f 143/163/160 142/161/160 157/185/160 158/171/160
f 155/179/161 154/177/161 169/186/161 170/187/161
f 148/181/162 1/188/162 163/189/162
f 12/190/163 162/178/163 177/191/163
f 156/183/164 155/179/164 170/187/164 171/192/164
f 149/184/165 148/181/165 163/189/165 164/193/165
f 157/185/166 156/183/166 171/192/166 172/194/166
f 150/169/167 149/184/167 164/193/167 165/195/167
f 158/171/168 157/185/168 172/194/168 173/196/168
f 151/170/169 150/169/169 165/195/169 166/197/169
f 159/172/170 158/171/170 173/196/170 174/198/170
f 152/173/171 151/170/171 166/197/171 167/199/171
f 160/174/172 159/172/172 174/198/172 175/200/172
f 153/175/173 152/173/173 167/199/173 168/201/173
f 161/176/174 160/174/174 175/200/174 176/202/174
f 154/177/175 153/175/175 168/201/175 169/186/175
f 162/178/176 161/176/176 176/202/176 177/191/176
f 174/198/177 173/196/177 188/203/177 189/204/177
f 167/199/178 166/197/178 181/205/178 182/206/178
f 175/200/179 174/198/179 189/204/179 190/207/179
f 168/201/180 167/199/180 182/206/180 183/208/180
f 176/202/181 175/200/181 190/207/181 191/209/181
f 169/186/182 168/201/182 183/208/182 184/210/182
f 177/191/183 176/202/183 191/209/183 192/211/183
f 170/187/184 169/186/184 184/210/184 185/212/184
f 163/189/185 1/213/185 178/214/185
f 12/215/186 177/191/186 192/211/186
f 171/192/187 170/187/187 185/212/187 186/216/187
f 164/193/188 163/189/188 178/214/188 179/217/188
f 172/194/189 171/192/189 186/216/189 187/218/189
f 165/195/190 164/193/190 179/217/190 180/219/190
f 173/196/191 172/194/191 187/218/191 188/203/191
f 166/197/192 165/195/192 180/219/192 181/205/192
f 12/220/193 192/221/193 207/222/193
f 186/223/194 185/224/194 200/225/194 201/226/194
f 179/227/195 178/228/195 193/229/195 194/230/195
f 187/231/196 186/223/196 201/226/196 202/232/196
f 180/233/197 179/227/197 194/230/197 195/234/197
f 188/235/198 187/231/198 202/232/198 203/236/198
f 181/237/199 180/233/199 195/234/199 196/238/199
f 189/239/200 188/235/200 203/236/200 204/240/200
f 182/241/201 181/237/201 196/238/201 197/242/201
f 190/243/202 189/239/202 204/240/202 205/244/202
f 183/245/203 182/241/203 197/242/203 198/246/203
f 191/247/204 190/243/204 205/244/204 206/248/204
f 184/249/205 183/245/205 198/246/205 199/250/205
f 192/221/206 191/247/206 206/248/206 207/222/206
f 185/224/207 184/249/207 199/250/207 200/225/207
f 178/228/208 1/251/208 193/229/208
f 205/244/209 204/240/209 219/252/209 220/253/209
f 198/246/210 197/242/210 212/254/210 213/255/210
f 206/248/211 205/244/211 220/253/211 221/256/211
f 199/250/212 198/246/212 213/255/212 214/257/212
f 207/222/213 206/248/213 221/256/213 222/258/213
f 200/225/214 199/250/214 214/257/214 215/259/214
f 193/229/215 1/260/215 208/261/215
f 12/262/216 207/222/216 222/258/216
f 201/226/217 200/225/217 215/259/217 216/263/217
f 194/230/218 193/229/218 208/261/218 209/264/218
f 202/232/219 201/226/219 216/263/219 217/265/219
f 195/234/220 194/230/220 209/264/220 210/266/220
f 203/236/221 202/232/221 217/265/221 218/267/221
f 196/238/222 195/234/222 210/266/222 211/268/222
f 204/240/223 203/236/223 218/267/223 219/252/223
f 197/242/224 196/238/224 211/268/224 212/254/224
f 209/264/225 208/261/225 223/269/225 224/270/225
f 217/265/226 216/263/226 231/271/226 232/272/226
f 210/266/227 209/264/227 224/270/227 225/273/227
f 218/267/228 217/265/228 232/272/228 233/274/228
f 211/268/229 210/266/229 225/273/229 226/275/229
f 219/252/230 218/267/230 233/274/230 234/276/230
f 212/254/231 211/268/231 226/275/231 227/277/231
f 220/253/232 219/252/232 234/276/232 235/278/232
f 213/255/233 212/254/233 227/277/233 228/279/233
f 221/256/234 220/253/234 235/278/234 236/280/234
f 214/257/235 213/255/235 228/279/235 229/281/235
f 222/258/236 221/256/236 236/280/236 237/282/236
f 215/259/237 214/257/237 229/281/237 230/283/237
f 208/261/238 1/284/238 223/269/238
f 12/285/239 222/258/239 237/282/239
f 216/263/240 215/259/240 230/283/240 231/271/240
f 228/279/241 227/277/241 239/13/241 5/17/241
f 236/280/242 235/278/242 9/15/242 10/19/242
f 229/281/243 228/279/243 5/17/243 6/21/243
f 237/282/244 236/280/244 10/19/244 11/23/244
f 230/283/245 229/281/245 6/21/245 240/25/245
f 223/269/246 1/286/246 2/27/246
f 12/287/247 237/282/247 11/23/247
f 231/271/248 230/283/248 240/25/248 7/31/248
f 224/270/249 223/269/249 2/27/249 3/2/249
f 232/272/250 231/271/250 7/31/250 241/6/250
f 225/273/251 224/270/251 3/2/251 238/1/251
f 233/274/252 232/272/252 241/6/252 8/5/252
f 226/275/253 225/273/253 238/1/253 4/9/253
f 234/276/254 233/274/254 8/5/254 242/11/254
f 227/277/255 226/275/255 4/9/255 239/13/255
f 235/278/256 234/276/256 242/11/256 9/15/256
